<?xml version="1.0" standalone="no"?>
<!DOCTYPE svg PUBLIC "-//W3C//DTD SVG 20010904//EN"
 "http://www.w3.org/TR/2001/REC-SVG-20010904/DTD/svg10.dtd">
<svg version="1.0" xmlns="http://www.w3.org/2000/svg"
 width="500.000000pt" height="500.000000pt" viewBox="0 0 500.000000 500.000000"
 preserveAspectRatio="xMidYMid meet">

<g transform="translate(0.000000,500.000000) scale(0.100000,-0.100000)"
fill="#000000" stroke="none">
<path d="M1663 4562 c-9 -9 -22 -17 -30 -18 -21 -3 -29 -14 -11 -14 9 0 21 -6
27 -14 8 -10 58 -15 190 -21 98 -4 184 -11 191 -15 7 -5 -56 -7 -141 -5 -85 1
-171 0 -191 -2 l-37 -5 1 -102 c0 -55 -1 -141 -2 -189 -2 -48 1 -92 6 -97 16
-16 138 -25 494 -36 113 -3 259 -9 325 -13 66 -5 218 -9 338 -10 120 -1 276
-6 345 -12 178 -12 231 -15 362 -19 103 -2 110 -3 65 -11 -27 -5 -77 -7 -110
-4 -33 3 -256 8 -495 10 -501 5 -1065 25 -1310 47 -39 3 -60 -4 -60 -22 0 -18
-5 -19 -57 -14 -59 6 -277 -25 -465 -67 -48 -10 -100 -19 -116 -19 -15 0 -33
-5 -38 -10 -6 -6 -46 -12 -88 -14 -118 -6 -116 -9 -111 211 5 206 6 211 30
229 27 20 11 29 -32 18 -59 -14 -62 -31 -53 -244 9 -196 14 -225 36 -234 7 -3
81 -6 163 -7 l149 -1 26 -36 c14 -20 26 -31 26 -24 0 15 50 6 65 -13 15 -18
52 -28 60 -15 10 16 42 -6 53 -38 6 -18 22 -34 43 -42 19 -8 49 -25 68 -37 19
-13 42 -23 52 -23 11 0 19 -6 19 -14 0 -15 115 -61 129 -51 5 3 12 1 16 -5 3
-5 16 -10 29 -10 12 0 26 -4 32 -10 5 -5 39 -12 76 -14 36 -3 87 -10 112 -16
25 -5 49 -9 53 -8 5 0 15 -1 23 -4 87 -32 109 -37 141 -32 41 7 149 -13 149
-27 0 -5 19 -9 43 -9 28 0 37 -3 28 -9 -9 -6 9 -11 55 -15 38 -4 101 -11 139
-17 147 -21 280 -29 594 -34 178 -3 326 -7 329 -10 3 -3 -172 -6 -389 -6 -217
-1 -421 -2 -454 -4 -133 -5 -902 -18 -1225 -20 -374 -2 -425 -11 -235 -41 36
-6 37 -7 18 -15 -13 -5 -23 -15 -23 -22 0 -12 35 -16 173 -21 234 -9 547 -5
490 6 -46 10 -56 30 -24 48 12 6 110 9 258 9 259 -2 810 -14 753 -17 -34 -2
-36 -4 -36 -37 0 -19 2 -32 4 -30 6 5 27 -17 35 -35 4 -12 6 -12 6 1 1 17 45
29 104 29 15 0 27 5 27 10 0 6 5 10 10 10 6 0 9 -5 8 -10 -2 -6 23 -13 57 -15
33 -2 77 -6 97 -9 21 -3 40 -1 43 3 6 11 -23 23 -36 15 -5 -3 -9 -1 -9 5 0 20
26 17 53 -6 16 -13 33 -20 39 -17 6 4 5 9 -3 15 -7 4 -10 11 -6 15 3 4 13 2
21 -5 11 -9 15 -9 19 1 4 10 8 10 16 -2 10 -13 12 -13 20 0 6 8 13 11 18 7 4
-4 1 -18 -6 -30 -13 -19 -12 -21 1 -10 8 7 18 10 22 6 4 -4 4 0 0 10 -4 12 -1
17 11 17 9 0 14 -4 11 -9 -8 -12 20 -22 39 -15 8 4 21 2 28 -4 6 -5 46 -10 87
-11 86 -2 123 -20 44 -22 -27 -1 -52 -1 -56 0 -5 0 -8 -2 -8 -6 0 -5 -17 -8
-37 -9 -20 0 -39 -6 -41 -12 -5 -17 -42 -15 -42 2 0 9 -12 14 -34 14 -19 0
-43 3 -55 7 -12 3 -21 2 -21 -4 0 -5 -17 -11 -37 -13 -31 -2 -39 -7 -41 -26
-3 -18 -8 -21 -28 -16 -32 8 -52 8 -162 -1 -51 -5 -94 -11 -96 -14 -6 -8 351
-6 397 3 39 7 50 -5 20 -23 -12 -7 -13 -11 -5 -11 7 0 20 7 28 15 9 8 25 15
36 15 14 0 18 5 14 15 -4 10 1 15 14 15 12 0 17 -5 14 -14 -3 -9 5 -18 23 -24
l28 -10 -25 -10 c-22 -10 -20 -11 25 -12 l50 -1 -30 -16 c-25 -14 -66 -17
-250 -19 -226 -2 -375 -11 -375 -23 0 -4 21 -6 48 -5 100 7 675 3 686 -3 6 -4
-36 -15 -94 -24 -82 -13 -95 -17 -57 -18 26 0 47 -5 47 -10 0 -14 -118 -26
-295 -28 -93 -1 -205 -7 -249 -14 -60 -9 -83 -10 -97 -1 -26 16 -28 15 -24
-10 4 -32 16 -59 24 -54 3 2 152 6 331 9 367 6 346 -5 -46 -24 -241 -12 -251
-13 -246 -32 5 -19 -5 -19 -569 -14 -397 4 -529 3 -429 -4 80 -5 371 -10 647
-11 277 -2 503 -6 503 -9 0 -8 -98 -17 -172 -15 -31 1 -54 -2 -51 -6 2 -5 29
-8 59 -8 30 0 54 -4 54 -10 0 -5 -9 -10 -19 -10 -18 0 -34 -25 -30 -46 7 -39
-15 -44 -54 -14 -14 11 -29 20 -33 20 -4 0 1 -9 11 -20 10 -11 15 -20 11 -20
-4 0 0 -7 9 -16 14 -15 18 -15 41 0 13 9 28 14 33 12 11 -7 20 -53 26 -129 3
-32 7 -63 10 -68 4 -5 0 -21 -8 -36 -23 -47 -45 -97 -52 -120 -3 -12 -23 -39
-44 -61 -29 -29 -39 -50 -44 -85 l-7 -47 40 0 c22 0 40 5 40 11 0 5 5 7 10 4
56 -34 -83 -33 -535 4 -66 6 -158 13 -205 16 -148 10 -445 35 -465 39 -11 2
-69 7 -130 11 -60 4 -121 9 -135 11 -14 1 -63 5 -110 8 -206 11 -389 26 -404
32 -28 11 -66 -4 -66 -26 0 -26 26 -36 129 -50 46 -6 93 -15 105 -20 11 -4 66
-18 121 -31 55 -12 108 -26 117 -31 10 -5 41 -13 70 -18 29 -6 62 -14 73 -20
11 -6 65 -22 120 -36 55 -14 116 -29 135 -34 19 -5 73 -14 120 -20 212 -25
257 -33 220 -40 -78 -14 -876 2 -1077 22 -120 11 -143 8 -143 -17 0 -14 12
-16 103 -9 88 5 104 4 116 -10 8 -10 29 -16 54 -16 22 0 37 -3 33 -7 -12 -12
-135 -13 -281 -3 -77 6 -214 11 -303 11 -98 -1 -172 4 -184 10 -35 19 -40 -5
-8 -36 19 -18 31 -40 31 -59 2 -30 2 -30 6 -4 6 37 28 53 56 41 12 -5 98 -8
192 -6 94 1 249 -1 345 -6 96 -6 247 -12 335 -16 88 -3 216 -10 285 -15 69 -5
132 -8 140 -7 8 1 44 -2 80 -6 36 -4 115 -9 175 -12 289 -12 594 -33 660 -45
28 -5 100 -12 160 -14 61 -3 118 -8 128 -12 10 -3 36 -4 58 -1 52 7 150 -3
143 -14 -3 -5 0 -9 5 -9 6 0 11 4 11 8 0 4 12 7 28 6 15 -1 55 -3 89 -3 40 -1
67 -6 76 -16 12 -11 17 -12 20 -2 6 13 12 -135 9 -193 -1 -19 5 -80 13 -134 8
-55 13 -102 10 -104 -2 -3 -35 -5 -72 -6 -38 -1 -74 -5 -80 -9 -10 -6 -191 3
-348 18 -141 14 -423 37 -608 50 -114 9 -225 17 -245 20 -20 2 -127 11 -237
20 -110 8 -226 17 -258 20 -32 3 -122 10 -200 15 -78 6 -203 15 -277 20 -133
10 -224 12 -205 5 6 -2 71 -9 145 -14 130 -11 468 -40 695 -61 61 -5 189 -17
285 -25 513 -45 911 -89 936 -103 13 -7 -24 -9 -121 -7 -179 5 -443 14 -565
20 -52 3 -221 9 -375 15 -154 6 -343 15 -420 21 -179 13 -823 24 -859 15 -16
-4 -24 -11 -20 -18 5 -7 34 -9 88 -5 117 8 273 -7 297 -29 18 -16 20 -16 37
-1 23 21 43 22 36 3 -6 -17 25 -29 50 -20 9 3 16 2 16 -4 0 -6 -61 -10 -162
-11 -98 -1 -165 -6 -168 -12 -5 -6 -21 -7 -49 0 -32 7 -49 6 -69 -5 -26 -13
-25 -14 28 -15 30 0 69 -2 85 -5 17 -2 94 -5 173 -6 105 -2 142 0 142 9 0 14
19 27 27 19 3 -3 0 -12 -7 -21 -11 -13 -3 -15 66 -15 116 0 374 -22 368 -32
-3 -4 -50 -8 -105 -8 -81 0 -99 -3 -99 -15 0 -8 -4 -15 -10 -15 -5 0 -10 6
-10 14 0 14 -21 26 -46 26 -9 0 -12 -4 -9 -10 4 -6 -5 -10 -21 -10 -23 0 -25
-2 -13 -16 10 -13 10 -17 -2 -25 -9 -6 0 -8 31 -8 37 1 41 2 20 9 -29 9 -19
13 29 10 19 -1 41 -8 48 -16 10 -9 42 -15 96 -16 45 -1 100 -3 122 -4 22 -2
55 -3 73 -3 18 -1 31 -5 28 -10 -7 -11 34 -22 48 -13 6 3 0 9 -14 13 -20 6
-16 7 18 8 24 1 41 -3 38 -8 -3 -5 56 -15 132 -24 l137 -15 -127 4 c-79 3
-128 1 -128 -5 0 -13 57 -19 235 -26 332 -12 409 -16 414 -21 3 -3 -32 -5 -79
-4 -47 1 -107 0 -135 -1 -47 -2 -46 -3 20 -9 122 -11 -269 -10 -530 1 -132 6
-361 14 -510 18 -218 6 -243 8 -130 10 84 2 130 6 115 11 -14 4 -77 5 -140 3
-63 -2 -135 0 -160 6 -37 8 -47 8 -56 -4 -13 -18 -89 -21 -78 -4 5 9 -1 10
-20 5 -17 -4 -25 -3 -22 3 3 5 -1 12 -10 15 -8 3 -12 2 -9 -3 3 -5 -3 -11 -12
-14 -18 -4 -17 -4 62 -38 22 -10 222 -27 330 -28 632 -9 2474 -70 2745 -91 85
-6 69 -7 -80 -4 -170 4 -185 3 -192 -13 -6 -17 -7 -17 -7 0 -1 13 -11 17 -48
18 -27 1 -111 3 -188 5 -77 2 -140 3 -140 4 0 0 -175 2 -390 5 -214 2 -509 8
-655 14 -146 6 -440 16 -655 21 -214 6 -397 12 -405 12 -8 1 -38 0 -66 0 l-51
-2 9 -47 c21 -105 25 -163 11 -163 -8 0 -13 -13 -13 -34 0 -18 -7 -39 -15 -46
-20 -17 -19 -27 11 -86 22 -43 32 -53 58 -57 17 -2 33 -3 35 -1 2 2 -2 23 -8
46 -7 24 -17 61 -22 83 -6 21 -15 45 -21 52 -8 10 -6 13 6 13 9 0 18 6 20 13
2 6 12 39 21 71 17 57 17 61 0 93 -11 20 -15 37 -9 41 5 5 113 5 239 1 127 -5
379 -13 560 -19 359 -11 892 -34 1185 -50 102 -5 216 -10 254 -10 38 0 67 -2
65 -4 -2 -2 -168 -9 -369 -16 -201 -6 -384 -13 -408 -15 -23 -2 -45 2 -48 7
-4 7 -9 7 -13 0 -4 -6 -152 -13 -381 -17 -206 -4 -377 -9 -379 -11 -2 -2 56
-4 130 -5 260 -2 267 -3 261 -19 -5 -13 -3 -13 11 -1 17 13 18 13 21 -11 0 -7
15 -15 31 -18 18 -3 30 -11 30 -20 0 -10 9 -14 28 -13 15 1 25 -2 22 -8 -4 -5
-32 -9 -65 -9 -53 0 -58 -2 -53 -20 4 -16 0 -20 -18 -21 -13 0 -40 -7 -59 -14
l-35 -13 37 -1 c20 -1 39 5 42 12 5 9 7 9 12 -1 5 -10 9 -10 22 0 12 10 16 10
19 1 4 -10 65 -12 281 -7 181 4 274 2 267 -4 -6 -6 -144 -13 -325 -17 -173 -4
-367 -9 -430 -10 -63 -2 -148 -4 -189 -4 -41 -1 -71 -4 -68 -8 4 -3 3 -11 -2
-17 -7 -8 33 -10 140 -9 125 2 151 0 155 -12 5 -11 22 -15 62 -15 105 0 48
-12 -125 -27 -89 -7 -96 -23 -10 -24 109 -1 112 -17 2 -19 -66 -1 -93 -4 -80
-10 13 -6 15 -9 5 -9 -8 0 -22 3 -30 9 -9 6 -19 5 -28 -3 -8 -6 -40 -12 -73
-12 -32 0 -61 -4 -65 -8 -4 -4 27 -7 69 -7 42 0 78 -4 81 -9 6 -9 -154 -14
-446 -16 -80 0 -119 -3 -105 -8 22 -9 934 -2 1257 9 515 18 676 21 1365 20
879 0 1013 8 966 59 -36 41 -65 277 -39 325 10 17 22 25 42 25 15 0 31 7 36
15 10 17 -13 80 -29 80 -13 0 -168 69 -329 146 -62 30 -117 54 -122 54 -20 0
-42 52 -46 112 -7 92 -23 163 -56 253 -28 74 -31 92 -35 246 l-5 167 34 10
c87 28 290 74 405 92 150 24 189 35 197 57 4 9 12 60 18 114 11 94 11 101 -11
147 l-23 49 20 84 c52 213 26 470 -49 494 -11 4 -111 6 -222 5 -111 -1 -208
-2 -214 -1 -10 1 -13 42 -13 169 -1 109 -6 195 -16 247 -9 44 -17 91 -17 105
l-2 25 130 1 c164 2 155 0 155 25 0 14 -11 25 -35 35 -20 8 -40 12 -44 9 -20
-12 -35 39 -55 190 -5 38 9 267 19 311 4 16 15 23 42 27 134 19 224 46 156 47
-63 0 -66 12 -58 219 4 102 12 192 17 199 6 6 23 12 37 12 15 0 36 6 47 14 18
14 18 15 -6 24 -26 9 -66 12 -620 37 -179 8 -446 22 -595 30 -148 8 -364 19
-480 25 -333 16 -1105 57 -1218 64 -43 3 -62 0 -74 -12z m460 -89 c-13 -2 -35
-2 -50 0 -16 2 -5 4 22 4 28 0 40 -2 28 -4z m-423 -297 c0 -11 -19 -15 -25 -6
-3 5 1 10 9 10 9 0 16 -2 16 -4z m127 -2 c-3 -3 -12 -4 -19 -1 -8 3 -5 6 6 6
11 1 17 -2 13 -5z m303 -5 c0 -7 -43 -8 -142 -4 -79 4 -145 9 -147 11 -2 2 62
4 142 4 98 0 147 -4 147 -11z m37 -5 c-3 -3 -12 -4 -19 -1 -8 3 -5 6 6 6 11 1
17 -2 13 -5z m204 -17 c-5 -5 -24 -4 -42 1 l-34 10 42 -1 c23 -1 38 -6 34 -10z
m-651 -27 c0 -5 -4 -10 -10 -10 -5 0 -10 5 -10 10 0 6 5 10 10 10 6 0 10 -4
10 -10z m1993 -137 c-7 -2 -19 -2 -25 0 -7 3 -2 5 12 5 14 0 19 -2 13 -5z
m157 3 c0 -2 -7 -6 -15 -10 -8 -3 -15 -1 -15 4 0 6 7 10 15 10 8 0 15 -2 15
-4z m175 -6 c4 -6 -7 -10 -27 -9 -31 1 -32 1 -8 9 14 4 26 8 27 9 1 1 5 -3 8
-9z m-2915 -134 c0 -9 -50 -12 -62 -5 -8 6 1 9 25 9 20 0 37 -2 37 -4z m1655
-646 c-27 -12 -43 -12 -25 0 8 5 22 9 30 9 10 0 8 -3 -5 -9z m350 -100 c-8
-13 -3 -13 30 0 19 7 39 7 68 -2 l42 -13 -40 -5 c-61 -8 -115 0 -115 16 0 8 5
14 11 14 5 0 7 -4 4 -10z m333 -197 c-10 -2 -28 -2 -40 0 -13 2 -5 4 17 4 22
1 32 -1 23 -4z m-635 -70 c-13 -2 -33 -2 -45 0 -13 2 -3 4 22 4 25 0 35 -2 23
-4z m351 -111 c3 -5 -20 -10 -51 -11 -31 -1 -60 -4 -65 -7 -4 -3 -14 -2 -20 3
-8 5 13 10 52 14 36 3 68 6 72 7 4 1 9 -2 12 -6z m-164 -11 c0 -9 -52 -22 -60
-15 -7 7 23 24 43 24 9 0 17 -4 17 -9z m227 -27 c-3 -3 -12 -4 -19 -1 -8 3 -5
6 6 6 11 1 17 -2 13 -5z m-217 -14 c0 -5 -5 -10 -11 -10 -5 0 -7 5 -4 10 3 6
8 10 11 10 2 0 4 -4 4 -10z m-119 -27 c13 -17 13 -17 -6 -3 -11 8 -22 16 -24
17 -2 2 0 3 6 3 6 0 17 -8 24 -17z m86 -49 c-3 -3 -12 -4 -19 -1 -8 3 -5 6 6
6 11 1 17 -2 13 -5z m-153 -532 c3 -5 -1 -9 -9 -9 -8 0 -12 4 -9 9 3 4 7 8 9
8 2 0 6 -4 9 -8z m353 2 c-3 -3 -12 -4 -19 -1 -8 3 -5 6 6 6 11 1 17 -2 13 -5z
m-1812 -259 c44 -3 114 -9 155 -14 41 -5 79 -6 84 -3 5 3 6 0 2 -6 -3 -6 2
-13 11 -15 22 -6 -264 1 -364 9 -55 4 -71 9 -67 19 6 13 53 24 84 19 8 -1 51
-5 95 -9z m-225 -15 c19 -12 -42 -12 -80 0 -21 7 -17 8 20 9 25 0 52 -4 60 -9z
m-773 -6 c-3 -3 -12 -4 -19 -1 -8 3 -5 6 6 6 11 1 17 -2 13 -5z m2911 -642 c8
-6 2 -9 -18 -9 -20 0 -26 3 -18 9 7 4 15 8 18 8 3 0 11 -4 18 -8z m37 -22 c3
-5 1 -10 -4 -10 -6 0 -11 5 -11 10 0 6 2 10 4 10 3 0 8 -4 11 -10z m-2149 -11
c2 -4 11 -6 18 -3 8 3 17 1 20 -4 7 -12 -79 -23 -124 -15 -19 3 -47 6 -61 6
-15 0 -26 6 -26 14 0 11 18 14 84 12 46 -1 86 -5 89 -10z m431 -45 c-3 -3 -12
-4 -19 -1 -8 3 -5 6 6 6 11 1 17 -2 13 -5z m18 -59 c183 -6 181 -6 158 -15
-23 -10 -317 -5 -333 5 -25 16 -5 24 43 19 28 -3 88 -7 132 -9z m308 -22 c-18
-2 -48 -2 -65 0 -18 2 -4 4 32 4 36 0 50 -2 33 -4z m-540 -40 c-13 -2 -33 -2
-45 0 -13 2 -3 4 22 4 25 0 35 -2 23 -4z m367 -3 c0 -6 -26 -9 -62 -8 l-63 1
50 7 c28 4 56 8 63 8 6 1 12 -2 12 -8z m-283 -6 c-3 -3 -12 -4 -19 -1 -8 3 -5
6 6 6 11 1 17 -2 13 -5z m86 -1 c-7 -2 -19 -2 -25 0 -7 3 -2 5 12 5 14 0 19
-2 13 -5z m44 1 c-3 -3 -12 -4 -19 -1 -8 3 -5 6 6 6 11 1 17 -2 13 -5z m228
-4 c3 -6 -1 -7 -9 -4 -18 7 -21 14 -7 14 6 0 13 -4 16 -10z m2 -26 c-3 -3 -12
-4 -19 -1 -8 3 -5 6 6 6 11 1 17 -2 13 -5z m-1087 -64 c0 -5 -4 -10 -9 -10 -6
0 -13 5 -16 10 -3 6 1 10 9 10 9 0 16 -4 16 -10z m37 -6 c-3 -3 -12 -4 -19 -1
-8 3 -5 6 6 6 11 1 17 -2 13 -5z m440 -30 c-3 -3 -12 -4 -19 -1 -8 3 -5 6 6 6
11 1 17 -2 13 -5z m1042 -9 c2 -3 -14 -5 -37 -5 -23 0 -42 5 -42 11 0 10 68 5
79 -6z m74 -2 c-13 -2 -33 -2 -45 0 -13 2 -3 4 22 4 25 0 35 -2 23 -4z m334
-9 c-3 -3 -12 -4 -19 -1 -8 3 -5 6 6 6 11 1 17 -2 13 -5z m1981 -100 c-2 -1
-25 1 -53 4 -45 5 -47 7 -20 12 25 5 81 -7 73 -16z m-1405 -31 c-7 -2 -21 -2
-30 0 -10 3 -4 5 12 5 17 0 24 -2 18 -5z m-1156 -60 c-15 -2 -25 -9 -22 -14 7
-11 3 -11 -19 -3 -30 12 -16 24 27 23 30 -2 34 -3 14 -6z m60 -49 c-3 -3 -12
-4 -19 -1 -8 3 -5 6 6 6 11 1 17 -2 13 -5z m-77 -63 c0 -5 -11 -11 -25 -13
-24 -5 -32 2 -18 15 9 10 43 8 43 -2z m140 -1 c0 -5 -4 -10 -10 -10 -5 0 -10
5 -10 10 0 6 5 10 10 10 6 0 10 -4 10 -10z m47 4 c-3 -3 -12 -4 -19 -1 -8 3
-5 6 6 6 11 1 17 -2 13 -5z m-180 -30 c-3 -3 -12 -4 -19 -1 -8 3 -5 6 6 6 11
1 17 -2 13 -5z m662 -18 c-11 -9 -149 -15 -149 -6 0 6 32 10 77 10 42 0 74 -2
72 -4z m104 -3 c-7 -2 -19 -2 -25 0 -7 3 -2 5 12 5 14 0 19 -2 13 -5z m-933
-79 c0 -2 -7 -4 -15 -4 -8 0 -15 4 -15 10 0 5 7 7 15 4 8 -4 15 -8 15 -10z
m-112 -131 c-21 -2 -57 -2 -80 0 -24 2 -7 4 37 4 44 0 63 -2 43 -4z"/>
<path d="M1536 4528 c-21 -8 -25 -13 -15 -19 20 -13 67 -11 75 3 5 8 2 9 -10
5 -14 -5 -17 -3 -12 8 6 17 2 17 -38 3z"/>
<path d="M1011 3694 c0 -11 3 -14 6 -6 3 7 2 16 -1 19 -3 4 -6 -2 -5 -13z"/>
<path d="M165 3227 c-4 -11 -3 -23 4 -30 15 -15 19 -7 11 23 -6 22 -8 23 -15
7z"/>
<path d="M2432 3220 c125 -4 234 -10 243 -14 8 -3 15 -2 15 3 0 14 -63 18
-280 18 l-205 0 227 -7z"/>
<path d="M3060 3111 c0 -6 4 -13 10 -16 6 -3 7 1 4 9 -7 18 -14 21 -14 7z"/>
<path d="M2750 3053 c0 -26 1 -26 14 -8 14 20 12 35 -5 35 -5 0 -9 -12 -9 -27z"/>
<path d="M3110 3029 c0 -5 5 -7 10 -4 6 3 10 8 10 11 0 2 -4 4 -10 4 -5 0 -10
-5 -10 -11z"/>
<path d="M3045 3020 c4 -6 11 -8 16 -5 14 9 11 15 -7 15 -8 0 -12 -5 -9 -10z"/>
<path d="M2738 2985 c-6 -43 -3 -54 10 -39 5 5 5 25 2 44 l-6 35 -6 -40z"/>
<path d="M2905 2910 c-3 -5 -5 -10 -3 -11 2 0 28 -2 59 -4 43 -2 56 0 56 11 0
17 -102 20 -112 4z"/>
<path d="M3048 2913 c7 -3 16 -2 19 1 4 3 -2 6 -13 5 -11 0 -14 -3 -6 -6z"/>
<path d="M3098 2913 c7 -3 16 -2 19 1 4 3 -2 6 -13 5 -11 0 -14 -3 -6 -6z"/>
<path d="M2730 2901 c0 -5 9 -7 20 -4 11 3 20 7 20 9 0 2 -9 4 -20 4 -11 0
-20 -4 -20 -9z"/>
<path d="M42 2768 c-14 -14 -16 -28 -3 -28 5 0 11 9 14 20 6 23 5 24 -11 8z"/>
<path d="M1400 2680 c0 -5 11 -10 25 -10 14 0 25 5 25 10 0 6 -11 10 -25 10
-14 0 -25 -4 -25 -10z"/>
<path d="M2670 2675 c-8 -9 -8 -15 -2 -15 12 0 26 19 19 26 -2 2 -10 -2 -17
-11z"/>
<path d="M1660 2661 c0 -4 8 -7 18 -7 9 -1 116 -4 237 -8 121 -4 236 -9 255
-10 19 -2 118 -6 220 -10 102 -3 211 -9 243 -12 37 -4 57 -2 57 5 0 6 -9 11
-20 11 -14 0 -20 7 -20 23 -1 18 -2 19 -10 6 -8 -14 -34 -16 -202 -14 -106 1
-213 5 -238 9 -64 8 -540 15 -540 7z"/>
<path d="M2623 2143 c-15 -6 -17 -39 -3 -48 5 -3 21 2 36 11 25 17 25 18 8 31
-19 14 -22 14 -41 6z"/>
<path d="M2521 2106 c-8 -10 -9 -16 -1 -21 5 -3 10 -1 10 4 0 6 12 11 27 11
29 0 24 12 -6 17 -11 1 -24 -4 -30 -11z"/>
<path d="M3078 1593 c7 -3 16 -2 19 1 4 3 -2 6 -13 5 -11 0 -14 -3 -6 -6z"/>
<path d="M270 1381 c0 -11 26 -22 34 -14 3 3 3 10 0 14 -7 12 -34 11 -34 0z"/>
<path d="M3120 1160 c0 -5 5 -10 10 -10 6 0 10 5 10 10 0 6 -4 10 -10 10 -5 0
-10 -4 -10 -10z"/>
<path d="M900 1010 c0 -5 7 -10 15 -10 8 0 15 5 15 10 0 6 -7 10 -15 10 -8 0
-15 -4 -15 -10z"/>
<path d="M820 1000 c0 -5 6 -10 14 -10 8 0 18 5 21 10 3 6 -3 10 -14 10 -12 0
-21 -4 -21 -10z"/>
<path d="M951 991 c-6 -10 -7 -21 -3 -25 3 -4 0 -11 -8 -16 -11 -7 -6 -10 19
-10 27 0 32 -3 28 -17 -13 -47 -12 -48 13 -46 105 9 180 9 180 -1 0 -8 3 -7 8
0 8 13 65 16 57 4 -3 -5 27 -8 66 -8 39 0 112 -3 164 -7 61 -5 99 -3 111 4 20
11 -2 13 -156 17 -36 0 -141 6 -234 13 -166 11 -223 20 -135 22 24 0 38 3 31
6 -6 2 -9 10 -5 16 9 15 13 37 6 37 -9 0 -33 -29 -33 -39 0 -6 -7 -11 -16 -11
-9 0 -13 5 -10 13 3 6 9 20 12 30 4 9 11 17 18 18 21 2 -39 17 -71 18 -22 1
-35 -5 -42 -18z m34 -31 c3 -5 2 -10 -4 -10 -5 0 -13 5 -16 10 -3 6 -2 10 4
10 5 0 13 -4 16 -10z"/>
<path d="M727 984 c-8 -8 1 -24 14 -24 5 0 9 7 9 15 0 15 -12 20 -23 9z"/>
<path d="M560 966 c0 -7 11 -16 25 -18 14 -3 25 -1 25 3 0 5 -7 9 -15 9 -8 0
-15 5 -15 10 0 6 -4 10 -10 10 -5 0 -10 -6 -10 -14z"/>
<path d="M948 923 c7 -3 16 -2 19 1 4 3 -2 6 -13 5 -11 0 -14 -3 -6 -6z"/>
<path d="M1128 923 c7 -3 16 -2 19 1 4 3 -2 6 -13 5 -11 0 -14 -3 -6 -6z"/>
<path d="M1168 923 c7 -3 16 -2 19 1 4 3 -2 6 -13 5 -11 0 -14 -3 -6 -6z"/>
<path d="M570 910 c0 -5 5 -10 10 -10 6 0 10 5 10 10 0 6 -4 10 -10 10 -5 0
-10 -4 -10 -10z"/>
<path d="M600 908 c0 -13 17 -17 96 -24 98 -7 127 -6 156 5 18 8 9 10 -42 11
-36 1 -98 5 -137 9 -40 4 -73 3 -73 -1z"/>
<path d="M1288 913 c18 -2 45 -2 60 0 15 2 0 4 -33 4 -33 0 -45 -2 -27 -4z"/>
<path d="M1412 908 c7 -4 42 -7 78 -7 75 1 63 6 -28 12 -34 2 -57 0 -50 -5z"/>
<path d="M891 894 c-11 -14 -9 -15 25 -12 22 2 38 8 37 13 -4 16 -47 16 -62
-1z"/>
<path d="M1628 873 c7 -3 16 -2 19 1 4 3 -2 6 -13 5 -11 0 -14 -3 -6 -6z"/>
<path d="M510 850 c0 -6 7 -13 15 -17 24 -9 27 1 5 15 -13 8 -20 8 -20 2z"/>
<path d="M1703 823 c26 -2 67 -2 90 0 23 2 2 3 -48 3 -49 0 -68 -1 -42 -3z"/>
<path d="M1858 823 c7 -3 16 -2 19 1 4 3 -2 6 -13 5 -11 0 -14 -3 -6 -6z"/>
<path d="M1903 823 c9 -2 23 -2 30 0 6 3 -1 5 -18 5 -16 0 -22 -2 -12 -5z"/>
<path d="M638 783 c12 -2 30 -2 40 0 9 3 -1 5 -23 4 -22 0 -30 -2 -17 -4z"/>
<path d="M723 773 c9 -2 23 -2 30 0 6 3 -1 5 -18 5 -16 0 -22 -2 -12 -5z"/>
<path d="M1055 590 c3 -5 8 -10 11 -10 2 0 4 5 4 10 0 6 -5 10 -11 10 -5 0 -7
-4 -4 -10z"/>
<path d="M1908 573 c7 -3 16 -2 19 1 4 3 -2 6 -13 5 -11 0 -14 -3 -6 -6z"/>
<path d="M1948 463 c7 -3 16 -2 19 1 4 3 -2 6 -13 5 -11 0 -14 -3 -6 -6z"/>
<path d="M1298 393 c23 -2 61 -2 85 0 23 2 4 4 -43 4 -47 0 -66 -2 -42 -4z"/>
<path d="M1548 393 c7 -3 16 -2 19 1 4 3 -2 6 -13 5 -11 0 -14 -3 -6 -6z"/>
<path d="M1788 343 c6 -2 18 -2 25 0 6 3 1 5 -13 5 -14 0 -19 -2 -12 -5z"/>
<path d="M1665 300 c-3 -5 1 -10 9 -10 9 0 16 5 16 10 0 6 -4 10 -9 10 -6 0
-13 -4 -16 -10z"/>
<path d="M1040 240 c0 -5 5 -10 11 -10 5 0 7 5 4 10 -3 6 -8 10 -11 10 -2 0
-4 -4 -4 -10z"/>
<path d="M1403 233 c20 -2 54 -2 75 0 20 2 3 4 -38 4 -41 0 -58 -2 -37 -4z"/>
<path d="M1061 150 c14 -4 125 -4 245 0 l219 7 -245 1 c-135 0 -233 -3 -219
-8z"/>
</g>
</svg>
